Coordinates
version=1
nRows=16
nColumns=42
inDegrees=yes

Units are S.I. units (second, meters, Newtons, ...)
If the header above contains a line with 'inDegrees', this indicates whether rotational values are in degrees (yes) or radians (no).

endheader
time	pelvis_tilt	pelvis_list	pelvis_rotation	pelvis_tx	pelvis_ty	pelvis_tz	hip_flexion_r	hip_adduction_r	hip_rotation_r	knee_angle_r	knee_adduction_r	knee_angle_r_beta	ankle_angle_r	subtalar_angle_r	mtp_angle_r	hip_flexion_l	hip_adduction_l	hip_rotation_l	knee_angle_l	knee_adduction_l	knee_angle_l_beta	ankle_angle_l	subtalar_angle_l	mtp_angle_l	lumbar_extension	lumbar_bending	lumbar_rotation	arm_flex_r	arm_add_r	arm_rot_r	elbow_flex_r	pro_sup_r	wrist_flex_r	wrist_dev_r	arm_flex_l	arm_add_l	arm_rot_l	elbow_flex_l	pro_sup_l	wrist_flex_l	wrist_dev_l
      1.75000000	     14.39997164	      4.91344586	      2.70434966	      0.21742685	      0.94213034	     -0.24077986	    -16.38781307	      4.22640165	    -17.02217062	      8.16578385	     -3.79393658	      0.14251981	     18.22759849	     12.33805216	     -7.54011345	      8.69687315	      4.32276065	     -9.16741482	     46.69208609	     -3.84207758	      0.81493064	     16.12372972	     -1.15099169	     -7.54011345	    -44.04179089	     -2.69589517	      1.28896428	      4.75387785	    -11.50989549	      4.39874618	     41.65759295	     90.00000001	      0.00000000	      0.00000000	     -3.00037737	    -10.52057683	     14.84931963	     47.36407159	     90.00000001	      0.00000000	      0.00000000
      1.76000000	     14.35577804	      4.91934413	      2.80405038	      0.22287316	      0.94192342	     -0.24077132	    -17.19179696	      4.29772422	    -17.21539643	      7.27467163	     -3.60392360	      0.12696697	     18.11050992	     12.92745580	     -7.53908625	      9.25777558	      4.64221496	     -9.22294997	     44.67043453	     -3.91802180	      0.77964616	     15.77532069	     -0.35996666	     -7.53908625	    -44.06766861	     -2.71553241	      1.28187311	      4.78432894	    -11.56695822	      4.49198613	     41.78897689	     90.00000001	      0.00000000	      0.00000000	     -3.05718840	    -10.43363274	     14.69548478	     47.35751161	     90.00000001	      0.00000000	      0.00000000
      1.77000000	     14.15035865	      4.83030627	      3.01361390	      0.22816332	      0.94125733	     -0.24087184	    -17.71663101	      4.57589230	    -17.46084108	      6.52292653	     -3.63069067	      0.11384654	     18.11391100	     13.31478757	     -7.53853278	     10.06462475	      4.89047496	     -9.20108388	     42.74667327	     -4.04132280	      0.74607019	     15.38808096	      0.21192038	     -7.53853278	    -43.92274342	     -2.60677312	      1.28013991	      4.80149631	    -11.59894386	      4.56935203	     41.88086318	     90.00000001	      0.00000000	      0.00000000	     -3.09615083	    -10.34792002	     14.62069022	     47.27910189	     90.00000001	      0.00000000	      0.00000000
      1.78000000	     14.18638917	      4.88194122	      3.10220546	      0.23368645	      0.94113337	     -0.24100417	    -18.71913886	      4.56366998	    -17.54100380	      5.46540854	     -3.31154865	      0.09538937	     17.85954728	     14.03688703	     -7.53793789	     10.31490606	      5.30408174	     -9.38536710	     40.32186933	     -4.20894333	      0.70374938	     14.83088988	      1.11716822	     -7.53793789	    -44.04699814	     -2.66262250	      1.22537603	      4.84066704	    -11.66969696	      4.66991431	     41.99366668	     90.00000001	      0.00000000	      0.00000000	     -3.14609430	    -10.27896795	     14.47988359	     47.27559349	     90.00000001	      0.00000000	      0.00000000
      1.79000000	     14.09331512	      4.84097151	      3.28914315	      0.23911381	      0.94055343	     -0.24125606	    -19.43842886	      4.73459185	    -17.71661146	      4.64180764	     -3.19833104	      0.08101483	     17.76669350	     14.51121339	     -7.53738571	     10.77484412	      5.63337022	     -9.65859654	     38.00834640	     -4.49240848	      0.66337079	     14.34630079	      1.94984450	     -7.53738571	    -44.02988532	     -2.59170869	      1.17056106	      4.85271485	    -11.70060082	      4.77800231	     42.11140624	     90.00000001	      0.00000000	      0.00000000	     -3.21678777	    -10.22250796	     14.40040207	     47.26588015	     90.00000001	      0.00000000	      0.00000000
      1.80000000	     14.15835699	      4.89463331	      3.34348862	      0.24475649	      0.94024807	     -0.24143525	    -20.42107252	      4.65492555	    -17.87617402	      3.75681317	     -2.80227618	      0.06556876	     17.57561315	     15.06276877	     -7.53667156	     10.85384357	      6.02508770	    -10.23575101	     35.38605884	     -4.78440588	      0.61760324	     13.83948632	      3.15694969	     -7.53667156	    -44.16359127	     -2.66600797	      1.15469434	      4.86143286	    -11.76988594	      4.91455221	     42.22982107	     90.00000001	      0.00000000	      0.00000000	     -3.30357031	    -10.17782719	     14.30500065	     47.33960719	     90.00000001	      0.00000000	      0.00000000
      1.81000000	     13.89799258	      4.68655528	      3.65099893	      0.24993418	      0.93905165	     -0.24192979	    -20.80893244	      5.07245367	    -18.12739209	      3.14940849	     -2.84279999	      0.05496755	     17.65857831	     15.34316815	     -7.53627981	     11.58390559	      6.18704892	    -10.60750797	     33.27622363	     -5.15756677	      0.58077966	     13.51067425	      3.84844948	     -7.53627981	    -43.97863897	     -2.38665377	      1.12125044	      4.89545879	    -11.86839066	      4.98268004	     42.29994899	     90.00000001	      0.00000000	      0.00000000	     -3.34281406	    -10.12655960	     14.29373008	     47.32188379	     90.00000001	      0.00000000	      0.00000000
      1.82000000	     14.04181645	      4.76027384	      3.67064021	      0.25594430	      0.93858634	     -0.24213180	    -21.79749039	      4.89554531	    -18.66639099	      2.51596438	     -2.37205967	      0.04391186	     17.74738852	     16.28823791	     -7.53389479	     11.44544873	      6.55816541	    -11.98669246	     30.48795245	     -5.73569422	      0.53211515	     13.32303292	      6.58450044	     -7.53389479	    -44.14765931	     -2.49822854	      1.08229483	      4.85482042	    -11.89849147	      5.22628026	     42.43650637	     90.00000001	      0.00000000	      0.00000000	     -3.50505360	    -10.10977492	     14.26408355	     47.39690189	     90.00000001	      0.00000000	      0.00000000
      1.83000000	     13.95756770	      4.67844128	      3.89119524	      0.26139632	      0.93759164	     -0.24267608	    -22.39651593	      5.02988878	    -19.06536086	      2.01163078	     -2.15341171	      0.03510958	     17.86793787	     16.75177435	     -7.53304280	     11.70732291	      6.84593784	    -12.73441113	     28.03112191	     -6.10359890	      0.48923537	     13.00691244	      7.87243485	     -7.53304280	    -44.14004007	     -2.36655902	      1.00971395	      4.88434239	    -11.92872752	      5.29685517	     42.48811225	     90.00000001	      0.00000000	      0.00000000	     -3.56741002	    -10.07847343	     14.25043524	     47.41279098	     90.00000001	      0.00000000	      0.00000000
      1.84000000	     13.85356444	      4.55330975	      4.13070525	      0.26696349	      0.93637426	     -0.24338816	    -22.90296028	      5.18523649	    -19.62034684	      1.67049829	     -1.92678748	      0.02915570	     18.14274752	     17.34210357	     -7.53222277	     11.99862207	      7.05915623	    -13.81705526	     25.69026602	     -6.51100129	      0.44837973	     12.86453984	      9.71783446	     -7.53222277	    -44.08695583	     -2.17662228	      0.94936746	      4.89393910	    -12.00756049	      5.39348947	     42.50781708	     90.00000001	      0.00000000	      0.00000000	     -3.66273435	    -10.01500150	     14.28923436	     47.43030004	     90.00000001	      0.00000000	      0.00000000
      1.85000000	     13.76380312	      4.41569967	      4.37055260	      0.27258358	      0.93503314	     -0.24386679	    -23.36338688	      5.35508285	    -20.26347300	      1.45745324	     -1.69519181	      0.02543736	     18.50874234	     18.09370342	     -7.53145826	     12.30445841	      7.15440404	    -15.28305590	     23.51977951	     -6.89611892	      0.41049759	     12.88012106	     12.25334064	     -7.53145826	    -44.03333427	     -2.01188784	      0.84420900	      4.92037172	    -11.98421683	      5.50871690	     42.55549245	     90.00000001	      0.00000000	      0.00000000	     -3.75675188	    -10.05654621	     14.33661458	     47.43138349	     90.00000001	      0.00000000	      0.00000000
      1.86000000	     13.38313157	      4.03928491	      4.75397623	      0.27783595	      0.93293704	     -0.24457723	    -23.38575365	      5.90658235	    -20.64536264	      1.30823476	     -1.70987541	      0.02283300	     18.77504273	     18.22190687	     -7.53121840	     13.15782994	      7.05148717	    -16.24493727	     21.93061509	     -7.14091701	      0.38276144	     12.94499201	     13.18137046	     -7.53121840	    -43.68214887	     -1.56685722	      0.86385579	      4.92280907	    -12.02294312	      5.55102160	     42.53530560	     90.00000001	      0.00000000	      0.00000000	     -3.83691739	    -10.01017534	     14.39484896	     47.46921815	     90.00000001	      0.00000000	      0.00000000
      1.87000000	     13.53590847	      3.99954706	      4.88978282	      0.28406653	      0.93174169	     -0.24512859	    -24.14054874	      5.84323349	    -21.41432159	      1.22673074	     -1.25217916	      0.02141049	     19.35563381	     19.18374296	     -7.53030520	     13.19789735	      7.04746927	    -19.35839363	     20.05524407	     -7.67104735	      0.35003004	     13.37490112	     18.79911260	     -7.53030520	    -43.82306716	     -1.53416642	      0.72656189	      4.91194530	    -12.00613652	      5.67144160	     42.53667779	     90.00000001	      0.00000000	      0.00000000	     -4.00081732	    -10.08351461	     14.54051898	     47.49099511	     90.00000001	      0.00000000	      0.00000000
      1.88000000	     13.35508242	      3.63189554	      5.15776172	      0.28997461	      0.92962789	     -0.24560977	    -24.36042626	      6.35804701	    -21.90715313	      1.19369402	     -1.28015882	      0.02083389	     19.91902305	     19.87705149	     -7.52919431	     14.02854516	      6.56800960	    -22.42351627	     19.18513790	     -8.07592933	      0.33484382	     14.04763390	     23.60131724	     -7.52919431	    -43.59059054	     -1.18145669	      0.74863593	      4.89790677	    -12.00371916	      5.74440588	     42.45771899	     90.00000001	      0.00000000	      0.00000000	     -4.14572259	    -10.08349074	     14.71965729	     47.45781063	     90.00000001	      0.00000000	      0.00000000
      1.89000000	     13.16511752	      3.24033139	      5.42833398	      0.29584253	      0.92741669	     -0.24605234	    -24.55134472	      6.96318536	    -22.07072729	      1.15526693	     -1.41865828	      0.02016321	     20.24516836	     20.03704356	     -7.52754000	     14.92554093	      6.00287490	    -25.51829430	     18.69356368	     -8.42161144	      0.32626424	     14.63625382	     27.92674543	     -7.52754000	    -43.36842476	     -0.81926697	      0.78031660	      4.85533221	    -11.99105073	      5.78056938	     42.46134780	     90.00000001	      0.00000000	      0.00000000	     -4.28617557	    -10.10106220	     14.85239873	     47.50689390	     90.00000001	      0.00000000	      0.00000000
      1.90000000	     13.04650992	      2.96120606	      5.68044586	      0.30184467	      0.92539094	     -0.24662919	    -24.86204477	      7.38997250	    -22.07832956	      1.13179657	     -1.41952997	      0.01975358	     20.63577028	     19.84597408	     -7.52657698	     15.48054249	      5.65663461	    -27.98843501	     18.05116492	     -8.59257503	      0.31505226	     14.82978460	     31.50686871	     -7.52657698	    -43.21861960	     -0.56173871	      0.72421058	      4.86339530	    -11.93020489	      5.78299235	     42.32420834	     90.00000001	      0.00000000	      0.00000000	     -4.41385320	    -10.15783964	     15.08983506	     47.50022776	     90.00000001	      0.00000000	      0.00000000
